%TF.GenerationSoftware,KiCad,Pcbnew,(6.0.5-0)*%
%TF.CreationDate,2022-07-21T12:39:38-05:00*%
%TF.ProjectId,HPS_Round_Clock,4850535f-526f-4756-9e64-5f436c6f636b,rev?*%
%TF.SameCoordinates,PX56c8cc0PY97a25c0*%
%TF.FileFunction,Legend,Bot*%
%TF.FilePolarity,Positive*%
%FSLAX46Y46*%
G04 Gerber Fmt 4.6, Leading zero omitted, Abs format (unit mm)*
G04 Created by KiCad (PCBNEW (6.0.5-0)) date 2022-07-21 12:39:38*
%MOMM*%
%LPD*%
G01*
G04 APERTURE LIST*
G04 Aperture macros list*
%AMRoundRect*
0 Rectangle with rounded corners*
0 $1 Rounding radius*
0 $2 $3 $4 $5 $6 $7 $8 $9 X,Y pos of 4 corners*
0 Add a 4 corners polygon primitive as box body*
4,1,4,$2,$3,$4,$5,$6,$7,$8,$9,$2,$3,0*
0 Add four circle primitives for the rounded corners*
1,1,$1+$1,$2,$3*
1,1,$1+$1,$4,$5*
1,1,$1+$1,$6,$7*
1,1,$1+$1,$8,$9*
0 Add four rect primitives between the rounded corners*
20,1,$1+$1,$2,$3,$4,$5,0*
20,1,$1+$1,$4,$5,$6,$7,0*
20,1,$1+$1,$6,$7,$8,$9,0*
20,1,$1+$1,$8,$9,$2,$3,0*%
%AMRotRect*
0 Rectangle, with rotation*
0 The origin of the aperture is its center*
0 $1 length*
0 $2 width*
0 $3 Rotation angle, in degrees counterclockwise*
0 Add horizontal line*
21,1,$1,$2,0,0,$3*%
G04 Aperture macros list end*
%ADD10C,0.150000*%
%ADD11C,0.120000*%
%ADD12C,3.200000*%
%ADD13C,2.000000*%
%ADD14R,1.600000X1.600000*%
%ADD15O,1.600000X1.600000*%
%ADD16RoundRect,0.250200X-0.649800X-0.649800X0.649800X-0.649800X0.649800X0.649800X-0.649800X0.649800X0*%
%ADD17C,1.800000*%
%ADD18R,1.700000X1.700000*%
%ADD19O,1.700000X1.700000*%
%ADD20RotRect,3.000000X3.000000X305.000000*%
%ADD21C,3.000000*%
%ADD22RoundRect,0.500000X-0.855982X-1.606174X1.575322X0.911515X0.855982X1.606174X-1.575322X-0.911515X0*%
%ADD23RoundRect,0.500000X1.426339X-0.682318X-0.731681X1.401657X-1.426339X0.682318X0.731681X-1.401657X0*%
G04 APERTURE END LIST*
D10*
%TO.C,BT1*%
X20087666Y49045496D02*
X20208613Y48955788D01*
X20274934Y48944094D01*
X20380261Y48959713D01*
X20497283Y49041652D01*
X20547984Y49135286D01*
X20559678Y49201606D01*
X20544059Y49306934D01*
X20325554Y49618992D01*
X19506402Y49045415D01*
X19697594Y48772365D01*
X19791228Y48721663D01*
X19857548Y48709969D01*
X19962876Y48725588D01*
X20040890Y48780215D01*
X20091591Y48873848D01*
X20103286Y48940169D01*
X20087666Y49045496D01*
X19896474Y49318547D01*
X19998039Y48343285D02*
X20325797Y47875198D01*
X20981070Y48682818D02*
X20161918Y48109241D01*
X21636586Y47746644D02*
X21308828Y48214731D01*
X21472707Y47980688D02*
X20653555Y47407111D01*
X20715950Y47567065D01*
X20739338Y47699706D01*
X20723719Y47805034D01*
X26337343Y48276874D02*
X26992859Y47340700D01*
X27133188Y48136545D02*
X26197014Y47481029D01*
%TO.C,J2*%
X59137380Y49303334D02*
X59851666Y49303334D01*
X59994523Y49350953D01*
X60089761Y49446191D01*
X60137380Y49589048D01*
X60137380Y49684286D01*
X59232619Y48874762D02*
X59185000Y48827143D01*
X59137380Y48731905D01*
X59137380Y48493810D01*
X59185000Y48398572D01*
X59232619Y48350953D01*
X59327857Y48303334D01*
X59423095Y48303334D01*
X59565952Y48350953D01*
X60137380Y48922381D01*
X60137380Y48303334D01*
%TO.C,J1*%
X87247337Y41666312D02*
X86751152Y41152498D01*
X86686169Y41016656D01*
X86688520Y40881989D01*
X86758204Y40748498D01*
X86826712Y40682340D01*
X85833338Y41641630D02*
X86244390Y41244683D01*
X86038864Y41443157D02*
X86733522Y42162496D01*
X86702794Y41993576D01*
X86705145Y41858909D01*
X86740574Y41758497D01*
D11*
%TO.C,BT1*%
X26638049Y52978136D02*
X28043311Y50971214D01*
X21776288Y50245321D02*
X25872048Y53113203D01*
X23046484Y47472397D02*
X21641222Y49479320D01*
X39067841Y29009439D02*
G75*
G03*
X28829816Y50667388I-6496632J10177754D01*
G01*
X28043311Y50971214D02*
G75*
G03*
X28851789Y50676952I614364J430182D01*
G01*
X21776288Y50245320D02*
G75*
G03*
X21641222Y49479320I315466J-450533D01*
G01*
X26638050Y52978136D02*
G75*
G03*
X25872048Y53113203I-450534J-315465D01*
G01*
X23062985Y46629411D02*
G75*
G03*
X39913191Y29601359I9508224J-7442218D01*
G01*
X23046484Y46612033D02*
G75*
G03*
X23046484Y47472397I-614364J430182D01*
G01*
%TO.C,J2*%
X60765000Y47300000D02*
X48005000Y47300000D01*
X60765000Y44640000D02*
X60765000Y47300000D01*
X63365000Y44640000D02*
X63365000Y45970000D01*
X62035000Y44640000D02*
X63365000Y44640000D01*
X60765000Y44640000D02*
X48005000Y44640000D01*
X48005000Y44640000D02*
X48005000Y47300000D01*
%TO.C,J1*%
X81875607Y30105570D02*
X75401548Y36357495D01*
X82834393Y44054431D02*
X78701176Y39774359D01*
X81875607Y30105570D02*
X84827905Y33162764D01*
X89308451Y37802505D02*
X82834393Y44054431D01*
X75401548Y36357495D02*
X77311859Y38335679D01*
X89308451Y37802505D02*
X87953867Y36399793D01*
X86334119Y38033474D02*
G75*
G03*
X80130851Y38902948I-3180262J-126233D01*
G01*
X80930950Y35605354D02*
G75*
G03*
X83209705Y34707728I2222906J2301883D01*
G01*
%TD*%
%LPC*%
D12*
%TO.C,H4*%
X4500000Y59000000D03*
%TD*%
D13*
%TO.C,TP11*%
X69655000Y91055000D03*
%TD*%
%TO.C,TP13*%
X58098000Y68576000D03*
%TD*%
%TO.C,TP4*%
X56955000Y97405000D03*
%TD*%
%TO.C,TP15*%
X39810000Y88515000D03*
%TD*%
%TO.C,TP5*%
X92515000Y64385000D03*
%TD*%
%TO.C,TP2*%
X46160000Y91055000D03*
%TD*%
%TO.C,TP8*%
X76640000Y88515000D03*
%TD*%
D12*
%TO.C,H2*%
X113500000Y59000000D03*
%TD*%
D13*
%TO.C,TP1*%
X34730000Y82800000D03*
%TD*%
%TO.C,TP14*%
X52510000Y92325000D03*
%TD*%
D12*
%TO.C,H3*%
X59000000Y4500000D03*
%TD*%
D13*
%TO.C,TP3*%
X53145000Y51050000D03*
%TD*%
%TO.C,TP12*%
X58225000Y65401000D03*
%TD*%
D14*
%TO.C,U4*%
X41842000Y54860000D03*
D15*
X44382000Y54860000D03*
X46922000Y54860000D03*
X49462000Y54860000D03*
X52002000Y54860000D03*
X54542000Y54860000D03*
X57082000Y54860000D03*
X59622000Y54860000D03*
X62162000Y54860000D03*
X64702000Y54860000D03*
X67242000Y54860000D03*
X69782000Y54860000D03*
X72322000Y54860000D03*
X74862000Y54860000D03*
X74862000Y62480000D03*
X72322000Y62480000D03*
X69782000Y62480000D03*
X67242000Y62480000D03*
X64702000Y62480000D03*
X62162000Y62480000D03*
X59622000Y62480000D03*
X57082000Y62480000D03*
X54542000Y62480000D03*
X52002000Y62480000D03*
X49462000Y62480000D03*
X46922000Y62480000D03*
X44382000Y62480000D03*
X41842000Y62480000D03*
%TD*%
D12*
%TO.C,H1*%
X59000000Y113500000D03*
%TD*%
D16*
%TO.C,U3*%
X63940000Y65750000D03*
D17*
X66480000Y65750000D03*
X69020000Y65750000D03*
%TD*%
D13*
%TO.C,TP6*%
X22665000Y64385000D03*
%TD*%
D14*
%TO.C,U2*%
X54800000Y73275000D03*
D15*
X52260000Y73275000D03*
X49720000Y73275000D03*
X47180000Y73275000D03*
X47180000Y65655000D03*
X49720000Y65655000D03*
X52260000Y65655000D03*
X54800000Y65655000D03*
%TD*%
D13*
%TO.C,TP7*%
X80450000Y85340000D03*
%TD*%
D18*
%TO.C,J3*%
X58225000Y77085000D03*
D19*
X60765000Y77085000D03*
X58225000Y74545000D03*
X60765000Y74545000D03*
X58225000Y72005000D03*
X60765000Y72005000D03*
%TD*%
D20*
%TO.C,BT1*%
X25000000Y50000000D03*
D21*
X36752581Y33215575D03*
%TD*%
D18*
%TO.C,J2*%
X62035000Y45970000D03*
D19*
X59495000Y45970000D03*
X56955000Y45970000D03*
X54415000Y45970000D03*
X51875000Y45970000D03*
X49335000Y45970000D03*
%TD*%
D22*
%TO.C,J1*%
X85671546Y35475937D03*
D23*
X80335375Y33261150D03*
X79410464Y37629735D03*
%TD*%
M02*
