%TF.GenerationSoftware,KiCad,Pcbnew,(6.0.5-0)*%
%TF.CreationDate,2022-07-21T12:39:38-05:00*%
%TF.ProjectId,HPS_Round_Clock,4850535f-526f-4756-9e64-5f436c6f636b,rev?*%
%TF.SameCoordinates,PX56c8cc0PY97a25c0*%
%TF.FileFunction,Soldermask,Bot*%
%TF.FilePolarity,Negative*%
%FSLAX46Y46*%
G04 Gerber Fmt 4.6, Leading zero omitted, Abs format (unit mm)*
G04 Created by KiCad (PCBNEW (6.0.5-0)) date 2022-07-21 12:39:38*
%MOMM*%
%LPD*%
G01*
G04 APERTURE LIST*
G04 Aperture macros list*
%AMRoundRect*
0 Rectangle with rounded corners*
0 $1 Rounding radius*
0 $2 $3 $4 $5 $6 $7 $8 $9 X,Y pos of 4 corners*
0 Add a 4 corners polygon primitive as box body*
4,1,4,$2,$3,$4,$5,$6,$7,$8,$9,$2,$3,0*
0 Add four circle primitives for the rounded corners*
1,1,$1+$1,$2,$3*
1,1,$1+$1,$4,$5*
1,1,$1+$1,$6,$7*
1,1,$1+$1,$8,$9*
0 Add four rect primitives between the rounded corners*
20,1,$1+$1,$2,$3,$4,$5,0*
20,1,$1+$1,$4,$5,$6,$7,0*
20,1,$1+$1,$6,$7,$8,$9,0*
20,1,$1+$1,$8,$9,$2,$3,0*%
%AMRotRect*
0 Rectangle, with rotation*
0 The origin of the aperture is its center*
0 $1 length*
0 $2 width*
0 $3 Rotation angle, in degrees counterclockwise*
0 Add horizontal line*
21,1,$1,$2,0,0,$3*%
G04 Aperture macros list end*
%ADD10C,3.200000*%
%ADD11C,2.000000*%
%ADD12R,1.600000X1.600000*%
%ADD13O,1.600000X1.600000*%
%ADD14RoundRect,0.250200X-0.649800X-0.649800X0.649800X-0.649800X0.649800X0.649800X-0.649800X0.649800X0*%
%ADD15C,1.800000*%
%ADD16R,1.700000X1.700000*%
%ADD17O,1.700000X1.700000*%
%ADD18RotRect,3.000000X3.000000X305.000000*%
%ADD19C,3.000000*%
%ADD20RoundRect,0.500000X-0.855982X-1.606174X1.575322X0.911515X0.855982X1.606174X-1.575322X-0.911515X0*%
%ADD21RoundRect,0.500000X1.426339X-0.682318X-0.731681X1.401657X-1.426339X0.682318X0.731681X-1.401657X0*%
G04 APERTURE END LIST*
D10*
%TO.C,H4*%
X4500000Y59000000D03*
%TD*%
D11*
%TO.C,TP11*%
X69655000Y91055000D03*
%TD*%
%TO.C,TP13*%
X58098000Y68576000D03*
%TD*%
%TO.C,TP4*%
X56955000Y97405000D03*
%TD*%
%TO.C,TP15*%
X39810000Y88515000D03*
%TD*%
%TO.C,TP5*%
X92515000Y64385000D03*
%TD*%
%TO.C,TP2*%
X46160000Y91055000D03*
%TD*%
%TO.C,TP8*%
X76640000Y88515000D03*
%TD*%
D10*
%TO.C,H2*%
X113500000Y59000000D03*
%TD*%
D11*
%TO.C,TP1*%
X34730000Y82800000D03*
%TD*%
%TO.C,TP14*%
X52510000Y92325000D03*
%TD*%
D10*
%TO.C,H3*%
X59000000Y4500000D03*
%TD*%
D11*
%TO.C,TP3*%
X53145000Y51050000D03*
%TD*%
%TO.C,TP12*%
X58225000Y65401000D03*
%TD*%
D12*
%TO.C,U4*%
X41842000Y54860000D03*
D13*
X44382000Y54860000D03*
X46922000Y54860000D03*
X49462000Y54860000D03*
X52002000Y54860000D03*
X54542000Y54860000D03*
X57082000Y54860000D03*
X59622000Y54860000D03*
X62162000Y54860000D03*
X64702000Y54860000D03*
X67242000Y54860000D03*
X69782000Y54860000D03*
X72322000Y54860000D03*
X74862000Y54860000D03*
X74862000Y62480000D03*
X72322000Y62480000D03*
X69782000Y62480000D03*
X67242000Y62480000D03*
X64702000Y62480000D03*
X62162000Y62480000D03*
X59622000Y62480000D03*
X57082000Y62480000D03*
X54542000Y62480000D03*
X52002000Y62480000D03*
X49462000Y62480000D03*
X46922000Y62480000D03*
X44382000Y62480000D03*
X41842000Y62480000D03*
%TD*%
D10*
%TO.C,H1*%
X59000000Y113500000D03*
%TD*%
D14*
%TO.C,U3*%
X63940000Y65750000D03*
D15*
X66480000Y65750000D03*
X69020000Y65750000D03*
%TD*%
D11*
%TO.C,TP6*%
X22665000Y64385000D03*
%TD*%
D12*
%TO.C,U2*%
X54800000Y73275000D03*
D13*
X52260000Y73275000D03*
X49720000Y73275000D03*
X47180000Y73275000D03*
X47180000Y65655000D03*
X49720000Y65655000D03*
X52260000Y65655000D03*
X54800000Y65655000D03*
%TD*%
D11*
%TO.C,TP7*%
X80450000Y85340000D03*
%TD*%
D16*
%TO.C,J3*%
X58225000Y77085000D03*
D17*
X60765000Y77085000D03*
X58225000Y74545000D03*
X60765000Y74545000D03*
X58225000Y72005000D03*
X60765000Y72005000D03*
%TD*%
D18*
%TO.C,BT1*%
X25000000Y50000000D03*
D19*
X36752581Y33215575D03*
%TD*%
D16*
%TO.C,J2*%
X62035000Y45970000D03*
D17*
X59495000Y45970000D03*
X56955000Y45970000D03*
X54415000Y45970000D03*
X51875000Y45970000D03*
X49335000Y45970000D03*
%TD*%
D20*
%TO.C,J1*%
X85671546Y35475937D03*
D21*
X80335375Y33261150D03*
X79410464Y37629735D03*
%TD*%
M02*
