M48
; DRILL file {KiCad (6.0.5-0)} date Thursday, July 21, 2022 at 12:40:54 PM
; FORMAT={-:-/ absolute / inch / decimal}
; #@! TF.CreationDate,2022-07-21T12:40:54-05:00
; #@! TF.GenerationSoftware,Kicad,Pcbnew,(6.0.5-0)
; #@! TF.FileFunction,MixedPlating,1,2
FMAT,2
INCH
; #@! TA.AperFunction,Plated,PTH,ViaDrill
T1C0.0160
; #@! TA.AperFunction,Plated,PTH,ComponentDrill
T2C0.0315
; #@! TA.AperFunction,Plated,PTH,ComponentDrill
T3C0.0354
; #@! TA.AperFunction,Plated,PTH,ComponentDrill
T4C0.0394
; #@! TA.AperFunction,Plated,PTH,ComponentDrill
T5C0.0591
; #@! TA.AperFunction,NonPlated,NPTH,ComponentDrill
T6C0.1260
%
G90
G05
T1
X0.3423Y2.4848
X0.3423Y2.1598
X0.3423Y1.5848
X0.3923Y2.7348
X0.3923Y1.9098
X0.4423Y1.6598
X0.4673Y2.9848
X0.5673Y3.2348
X0.5673Y1.3848
X0.6423Y0.9848
X0.7173Y3.4848
X0.7173Y1.1598
X0.8673Y0.9348
X0.8923Y3.7098
X0.8923Y2.3348
X0.9173Y2.1098
X0.9423Y2.7348
X1.0673Y3.0848
X1.0673Y0.7598
X1.0673Y0.5848
X1.0923Y3.8848
X1.1173Y1.9098
X1.1923Y2.7848
X1.2173Y2.1098
X1.2923Y2.5098
X1.3173Y4.0348
X1.3173Y3.3848
X1.3173Y0.6098
X1.3673Y2.8098
X1.3923Y2.9848
X1.3923Y2.3848
X1.4173Y1.8848
X1.4423Y2.0848
X1.4673Y2.6598
X1.4738Y3.0598
X1.5173Y0.4848
X1.5423Y1.4598
X1.5673Y4.1598
X1.5673Y1.1598
X1.5673Y0.3098
X1.5923Y1.6348
X1.6423Y3.4098
X1.6423Y2.3848
X1.6423Y2.2598
X1.6423Y1.2848
X1.6923Y3.6098
X1.7173Y3.4348
X1.7173Y2.7598
X1.7173Y2.5848
X1.8173Y4.2348
X1.8173Y3.2848
X1.8173Y2.2819
X1.8173Y1.3098
X1.8173Y0.3848
X1.8423Y0.9598
X1.8575Y2.75
X1.8673Y1.4598
X1.8923Y2.3848
X1.9173Y1.1348
X1.9423Y2.6598
X1.9673Y3.5598
X1.9923Y3.7348
X1.9923Y2.3848
X2.0173Y3.4098
X2.0173Y2.6848
X2.0173Y2.3069
X2.0173Y1.1598
X2.0423Y0.3598
X2.0423Y0.2348
X2.0673Y4.3098
X2.0673Y1.9098
X2.0673Y1.2598
X2.1481Y3.9406
X2.1673Y3.3598
X2.1673Y1.3848
X2.2173Y3.5848
X2.2173Y3.4848
X2.2173Y1.0598
X2.2173Y0.8848
X2.2923Y1.9098
X2.3173Y4.1098
X2.3173Y3.7598
X2.3173Y1.1598
X2.3923Y2.3348
X2.4423Y3.3598
X2.4423Y0.5098
X2.4673Y4.3098
X2.4673Y1.3848
X2.5173Y2.6598
X2.5173Y1.7098
X2.5173Y1.0598
X2.5423Y3.8348
X2.5673Y1.2348
X2.5673Y0.9348
X2.5923Y2.3069
X2.5923Y2.2319
X2.6673Y4.2598
X2.6923Y2.3348
X2.6923Y1.3098
X2.6923Y0.5598
X2.6923Y0.2598
X2.7173Y3.4598
X2.7173Y3.2098
X2.7173Y2.8848
X2.7673Y1.5098
X2.7923Y3.7598
X2.7923Y2.9098
X2.8423Y1.8848
X2.8423Y1.3348
X2.8923Y3.4098
X2.9364Y2.2789
X2.9673Y4.1848
X2.9673Y0.4098
X2.9923Y3.6598
X2.9923Y3.0848
X3.0173Y3.3598
X3.0173Y1.3348
X3.0423Y1.6598
X3.1423Y0.5098
X3.1673Y1.0598
X3.1923Y4.1098
X3.1923Y2.8098
X3.2173Y3.4848
X3.2173Y1.9348
X3.2923Y3.0848
X3.2923Y2.5348
X3.2923Y1.6348
X3.3173Y2.2348
X3.3423Y1.8598
X3.3923Y0.6348
X3.3923Y0.4348
X3.4423Y3.9848
X3.4673Y2.7598
X3.4673Y2.4348
X3.5173Y2.1098
X3.5673Y3.1598
X3.5923Y0.8098
X3.6173Y1.5098
X3.6423Y1.9848
X3.6673Y3.7848
X3.7423Y2.0598
X3.7423Y0.7598
X3.7673Y2.7848
X3.8173Y2.3848
X3.8423Y3.5848
X3.8423Y1.0348
X3.9673Y1.2098
X4.0173Y3.3598
X4.1173Y2.3848
X4.1423Y3.1098
X4.1423Y1.5348
X4.1923Y1.2348
X4.2423Y2.8348
X4.2423Y1.7848
X4.29Y2.5871
X4.2923Y2.0348
T2
X1.6473Y2.4598
X1.6473Y2.1598
X1.7473Y2.4598
X1.7473Y2.1598
X1.8473Y2.4598
X1.8473Y2.1598
X1.8575Y2.8848
X1.8575Y2.5848
X1.9473Y2.4598
X1.9473Y2.1598
X1.9575Y2.8848
X1.9575Y2.5848
X2.0473Y2.4598
X2.0473Y2.1598
X2.0575Y2.8848
X2.0575Y2.5848
X2.1473Y2.4598
X2.1473Y2.1598
X2.1575Y2.8848
X2.1575Y2.5848
X2.2473Y2.4598
X2.2473Y2.1598
X2.3473Y2.4598
X2.3473Y2.1598
X2.4473Y2.4598
X2.4473Y2.1598
X2.5473Y2.4598
X2.5473Y2.1598
X2.6473Y2.4598
X2.6473Y2.1598
X2.7473Y2.4598
X2.7473Y2.1598
X2.8473Y2.4598
X2.8473Y2.1598
X2.9473Y2.4598
X2.9473Y2.1598
T3
X2.5173Y2.5886
X2.6173Y2.5886
X2.7173Y2.5886
T4
X0.8923Y2.5348
X1.3673Y3.2598
X1.5673Y3.4848
X1.8173Y3.5848
X1.9423Y1.8098
X2.0423Y1.8098
X2.0673Y3.6348
X2.0923Y2.0098
X2.1423Y1.8098
X2.2423Y3.8348
X2.2423Y1.8098
X2.2873Y2.6998
X2.2923Y3.0348
X2.2923Y2.9348
X2.2923Y2.8348
X2.2923Y2.5748
X2.3423Y1.8098
X2.3923Y3.0348
X2.3923Y2.9348
X2.3923Y2.8348
X2.4423Y1.8098
X2.7423Y3.5848
X3.0173Y3.4848
X3.1673Y3.3598
X3.6423Y2.5348
T5
X0.9843Y1.9685
X1.447Y1.3077
T6
X0.1772Y2.3228
X2.3228Y4.4685
X2.3228Y0.1772
X4.4685Y2.3228
T4
G00X3.1547Y1.4541
M15
G01X3.0981Y1.5088
M16
G05
G00X3.1911Y1.2821
M15
G01X3.1345Y1.3368
M16
G05
G00X3.3387Y1.3613
M15
G01X3.4071Y1.4321
M16
G05
T0
M30
